Coordinates
version=1
nRows=5
nColumns=46
inDegrees=yes

Units are S.I. units (second, meters, Newtons, ...)
Angles are in degrees.

endheader
time	pelvis_tilt	pelvis_list	pelvis_rotation	pelvis_tx	pelvis_ty	pelvis_tz	bb_angle	bb_tx	bb_ty	bb_tz	hip_flexion_r	hip_adduction_r	hip_rotation_r	knee_angle_r	knee_angle_r_beta	ankle_angle_r	subtalar_angle_r	mtp_angle_r	crank_angle_r	hip_flexion_l	hip_adduction_l	hip_rotation_l	knee_angle_l	knee_angle_l_beta	ankle_angle_l	subtalar_angle_l	mtp_angle_l	crank_angle_l	lumbar_extension	lumbar_bending	lumbar_rotation	arm_flex_r	arm_add_r	arm_rot_r	elbow_flex_r	pro_sup_r	wrist_flex_r	wrist_dev_r	arm_flex_l	arm_add_l	arm_rot_l	elbow_flex_l	pro_sup_l	wrist_flex_l	wrist_dev_l
      2.50500000	    -16.78622026	      3.72956682	      6.82855352	      0.11297938	      1.10392724	     -0.23182930	      0.00000000	      0.50000000	      0.00000000	      0.25000000	     47.57473345	    -11.03476983	     -9.36716309	     32.51265949	      0.56745296	    -24.87946503	     -8.98284189	      0.00000000	      0.00000000	     88.38913534	     -1.81362380	      2.03146888	    113.14579114	      1.97476659	      3.73681519	     -4.68298795	      0.00000000	      0.00000000	    -57.85774963	     -0.66651454	     -7.07651280	     89.76671144	     -5.22189218	     29.89310259	     35.84585013	     21.05510949	      0.00000000	      0.00000000	     89.78631516	     -6.72409814	     32.58471743	     43.44269335	     22.49431035	      0.00000000	      0.00000000
      2.51000000	    -16.92289441	      4.07297647	      6.82332312	      0.11258865	      1.10446430	     -0.23045864	      0.00000000	      0.50000000	      0.00000000	      0.25000000	     47.04539186	    -11.33831876	     -9.68609337	     32.01391298	      0.55874819	    -25.76838812	     -8.41289756	      0.00000000	      0.00000000	     89.45114325	     -1.78070419	      1.74009860	    113.30527688	      1.97755014	      3.87325217	     -4.62250420	      0.00000000	      0.00000000	    -57.84479501	     -1.01209518	     -7.13983550	     89.76435860	     -5.45172147	     29.84552515	     35.85287810	     21.05909519	      0.00000000	      0.00000000	     89.78315413	     -6.59401836	     32.52860966	     43.53644300	     22.49731852	      0.00000000	      0.00000000
      2.51500000	    -17.10567304	      4.38961602	      6.87252279	      0.11203325	      1.10521255	     -0.22921050	      0.00000000	      0.50000000	      0.00000000	      0.25000000	     46.57426772	    -11.63632399	     -9.92255643	     31.48931690	      0.54959226	    -27.04070291	     -7.84514948	      0.00000000	      0.00000000	     90.44978529	     -1.64888733	      1.49021100	    113.22941149	      1.97622604	      3.99622150	     -4.53331783	      0.00000000	      0.00000000	    -57.79342994	     -1.26373153	     -7.07104489	     89.76797190	     -5.80856929	     29.78150107	     35.89612297	     21.07090845	      0.00000000	      0.00000000	     89.78174025	     -6.35958535	     32.42091917	     43.73026426	     22.51361284	      0.00000000	      0.00000000
      2.52000000	    -17.25832827	      4.64039403	      6.91944635	      0.11135898	      1.10585457	     -0.22795648	      0.00000000	      0.50000000	      0.00000000	      0.25000000	     46.16877582	    -11.85449683	    -10.12424450	     31.17445597	      0.54409690	    -28.15728077	     -7.67775383	      0.00000000	      0.00000000	     91.39647444	     -1.51147409	      1.31771165	    113.06892015	      1.97342494	      4.11287252	     -4.44398890	      0.00000000	      0.00000000	    -57.79179790	     -1.47443752	     -6.97732567	     89.77008836	     -6.17425683	     29.72728987	     36.07627819	     21.11038812	      0.00000000	      0.00000000	     89.77936221	     -6.08315460	     32.22485027	     43.94436557	     22.52690591	      0.00000000	      0.00000000
      2.52500000	    -17.38942773	      4.86355356	      6.94446901	      0.11060471	      1.10644973	     -0.22669685	      0.00000000	      0.50000000	      0.00000000	      0.25000000	     45.83598149	    -12.02415688	    -10.26916092	     31.04730135	      0.54187763	    -29.12456474	     -7.70061344	      0.00000000	      0.00000000	     92.27016808	     -1.38871276	      1.16913647	    112.81407336	      1.96897702	      4.02270213	     -4.37362683	      0.00000000	      0.00000000	    -57.82333405	     -1.71309579	     -6.92774837	     89.77015027	     -6.54057298	     29.66088941	     36.29953949	     21.15745384	      0.00000000	      0.00000000	     89.77646151	     -5.91375319	     31.97971930	     44.18371871	     22.54418017	      0.00000000	      0.00000000
